<svg width="478" height="489" viewBox="0 0 478 489" fill="none" xmlns="http://www.w3.org/2000/svg">
<path d="M172.854 269.311C172.854 263.196 167.894 258.242 161.774 258.242H123.109C116.996 258.242 112.035 263.196 112.035 269.311V307.971C112.035 314.094 116.996 319.05 123.109 319.05H161.774C167.894 319.05 172.854 314.094 172.854 307.971V269.311Z" fill="#0084A3"/>
<path d="M269.483 269.311C269.483 263.196 264.522 258.242 258.414 258.242H219.744C213.631 258.242 208.67 263.196 208.67 269.311V307.971C208.67 314.094 213.631 319.05 219.744 319.05H258.414C264.522 319.05 269.483 314.094 269.483 307.971V269.311Z" fill="#0084A3"/>
<path d="M366.117 269.311C366.117 263.196 361.156 258.242 355.043 258.242H316.378C310.258 258.242 305.298 263.196 305.298 269.311V307.971C305.298 314.094 310.258 319.05 316.378 319.05H355.043C361.156 319.05 366.117 314.094 366.117 307.971V269.311Z" fill="#0084A3"/>
<path d="M172.854 365.95C172.854 359.825 167.894 354.875 161.774 354.875H123.109C116.996 354.875 112.035 359.825 112.035 365.95V404.603C112.035 410.722 116.996 415.677 123.109 415.677H161.774C167.894 415.677 172.854 410.721 172.854 404.603V365.95Z" fill="#0084A3"/>
<path d="M269.483 365.95C269.483 359.825 264.522 354.875 258.414 354.875H219.744C213.631 354.875 208.67 359.825 208.67 365.95V404.603C208.67 410.722 213.631 415.677 219.744 415.677H258.414C264.522 415.677 269.483 410.721 269.483 404.603V365.95Z" fill="#0084A3"/>
<path d="M366.117 365.95C366.117 359.825 361.156 354.875 355.048 354.875H316.378C310.258 354.875 305.298 359.825 305.298 365.95V404.603C305.298 410.722 310.258 415.677 316.378 415.677H355.048C361.156 415.677 366.117 410.721 366.117 404.603V365.95Z" fill="#0084A3"/>
<path d="M435.254 54.354V113.404C435.254 140.094 413.602 161.602 386.916 161.602H356.423C329.735 161.602 307.796 140.094 307.796 113.404V54.142H170.356V113.404C170.356 140.094 148.418 161.602 121.734 161.602H91.235C64.55 161.602 42.899 140.094 42.899 113.404V54.354C19.576 55.057 0.410995 74.356 0.410995 98.077V444.138C0.410995 468.305 19.999 488.153 44.166 488.153H433.986C458.117 488.153 477.741 468.264 477.741 444.138V98.077C477.741 74.356 458.577 55.057 435.254 54.354ZM421.091 422.588C421.091 433.032 412.623 441.505 402.175 441.505H75.144C64.696 441.505 56.228 433.032 56.228 422.588V243.835C56.228 233.387 64.695 224.914 75.144 224.914H402.174C412.622 224.914 421.09 233.387 421.09 243.835L421.091 422.588Z" fill="#0084A3"/>
<path d="M91.128 129.945H121.29C130.445 129.945 137.868 122.533 137.868 113.378V16.573C137.868 7.417 130.445 0 121.29 0H91.128C81.972 0 74.55 7.417 74.55 16.573V113.378C74.55 122.533 81.972 129.945 91.128 129.945Z" fill="#0084A3"/>
<path d="M356.035 129.945H386.197C395.346 129.945 402.769 122.533 402.769 113.378V16.573C402.77 7.417 395.347 0 386.197 0H356.035C346.881 0 339.458 7.417 339.458 16.573V113.378C339.458 122.533 346.881 129.945 356.035 129.945Z" fill="#0084A3"/>
</svg>
